<?xml version="1.0" standalone="no"?>
<!DOCTYPE svg PUBLIC "-//W3C//DTD SVG 20010904//EN"
 "http://www.w3.org/TR/2001/REC-SVG-20010904/DTD/svg10.dtd">
<svg version="1.0" xmlns="http://www.w3.org/2000/svg"
 width="520.000000pt" height="480.000000pt" viewBox="0 0 520.000000 480.000000"
 preserveAspectRatio="xMidYMid meet">
<metadata>
Created by potrace 1.16, written by Peter Selinger 2001-2019
</metadata>
<g transform="translate(0.000000,480.000000) scale(0.100000,-0.100000)"
fill="#000000" stroke="none">
<path d="M1400 4564 c-293 -39 -523 -145 -726 -337 -181 -171 -293 -365 -355
-617 -19 -81 -23 -120 -23 -270 0 -149 4 -189 23 -270 45 -183 125 -352 226
-480 50 -63 1954 -1969 2005 -2007 95 -72 249 -90 369 -43 123 48 227 180 238
301 l6 57 51 7 c177 24 322 171 343 346 l5 46 54 6 c105 11 216 83 279 181 28
44 40 81 60 182 4 17 19 24 82 37 130 28 227 108 285 236 26 58 34 179 15 246
l-13 50 146 150 c80 83 166 177 191 210 100 132 164 266 211 443 30 111 32
126 32 297 0 161 -3 191 -27 286 -105 421 -406 748 -810 880 -142 47 -238 62
-382 63 -138 1 -216 -10 -360 -51 -215 -61 -363 -155 -579 -365 l-151 -148
-135 133 c-74 74 -157 151 -185 173 -144 115 -336 201 -530 239 -82 16 -282
27 -345 19z m301 -240 c46 -8 104 -22 129 -31 77 -26 206 -90 262 -129 51 -36
338 -311 338 -324 0 -4 -168 -175 -374 -381 l-375 -374 47 -52 c144 -159 328
-243 530 -243 130 0 212 26 340 107 38 25 73 57 246 230 l152 152 556 -552
c498 -495 557 -557 568 -595 36 -138 -101 -255 -233 -198 -18 7 -76 58 -129
112 -53 55 -259 261 -457 459 l-361 360 -75 -75 c-41 -41 -75 -78 -75 -83 0
-5 207 -215 460 -468 475 -475 480 -480 480 -558 0 -14 -9 -44 -21 -67 -34
-71 -111 -105 -190 -84 -38 10 -98 67 -507 473 -254 254 -464 463 -466 464 -1
1 -37 -33 -80 -76 l-77 -78 455 -455 c526 -525 522 -520 476 -626 -37 -85
-142 -126 -221 -87 -19 9 -240 222 -491 473 l-458 456 -41 -39 c-66 -64 -108
-109 -109 -118 0 -5 205 -214 456 -465 274 -274 462 -469 470 -489 19 -45 17
-90 -6 -137 -26 -52 -61 -77 -116 -84 -98 -11 -32 -70 -1100 996 -963 961
-991 990 -1045 1082 -101 174 -141 320 -141 520 0 181 36 329 118 479 140 256
391 442 674 501 108 23 282 25 391 4z m2158 1 c131 -23 285 -86 395 -162 77
-53 218 -200 272 -283 106 -164 158 -343 157 -545 -1 -310 -97 -515 -368 -785
l-135 -135 -512 512 -512 512 89 89 c50 48 96 95 103 103 10 14 1 28 -64 93
l-77 77 -356 -353 c-315 -312 -365 -358 -431 -393 -73 -39 -78 -40 -175 -40
-94 0 -104 2 -167 34 -38 19 -68 37 -68 40 0 4 233 239 518 522 519 517 562
555 702 626 184 93 417 126 629 88z"/>
</g>
</svg>
